# xmcd
# 
# Track frame offsets:
#     180
#     34781
#     76536
#     98531
#     125258
#     154310
#     179380
#     208214
#     232220
#     264340
# 
# Disc length: 3913
# 
# Revision: 1
# Processed by: cddbd v1.5.2PL0 Copyright (c) Steve Scherf et al.
# Submitted via: BonkEnc v1.0.8
# 
DISCID=7b0f470a
DTITLE=Saxology featuring Bob Mintzer - Saxology II
DYEAR=1996
DGENRE=Big Band
TTITLE0=The Red Sea
TTITLE1=Shenanigans
TTITLE2=Passion Flower
TTITLE3=Song For Daralene
TTITLE4=Dolphin Dance
TTITLE5=Prelude VII
TTITLE6=Morning Star
TTITLE7=Infant Eyes
TTITLE8=Footprints
TTITLE9=Blues and the Abstract Truth
EXTD=YEAR: 1996
EXTT0=
EXTT1=
EXTT2=
EXTT3=
EXTT4=
EXTT5=
EXTT6=
EXTT7=
EXTT8=
EXTT9=
PLAYORDER=
